<svg width="251" height="36" viewBox="0 0 251 36" fill="none" xmlns="http://www.w3.org/2000/svg">
<path d="M0.460227 35L6.25568 0.0909081H20.8125C23.4261 0.0909081 25.5568 0.460226 27.2045 1.19886C28.8523 1.9375 30.0114 2.97159 30.6818 4.30114C31.3636 5.63068 31.5568 7.17045 31.2614 8.92045C31.0227 10.2386 30.5341 11.4205 29.7955 12.4659C29.0682 13.5 28.1591 14.3636 27.0682 15.0568C25.9773 15.7386 24.7727 16.2159 23.4545 16.4886L23.3864 16.8295C24.7955 16.8864 26.0398 17.2614 27.1193 17.9545C28.2102 18.6477 29.017 19.6193 29.5398 20.8693C30.0625 22.108 30.1818 23.5625 29.8977 25.233C29.5909 27.108 28.8352 28.7841 27.6307 30.2614C26.4375 31.7273 24.8636 32.8864 22.9091 33.7386C20.9545 34.5795 18.6932 35 16.125 35H0.460227ZM10.0568 28.1989H15.2727C17.0795 28.1989 18.4773 27.8523 19.4659 27.1591C20.4659 26.4545 21.0568 25.4886 21.2386 24.2614C21.3864 23.3636 21.3068 22.5909 21 21.9432C20.6932 21.2841 20.1818 20.7784 19.4659 20.4261C18.75 20.0625 17.8466 19.8807 16.7557 19.8807H11.3864L10.0568 28.1989ZM12.3239 14.4432H17.0114C17.9205 14.4432 18.7557 14.2898 19.517 13.983C20.2898 13.6761 20.9261 13.233 21.4261 12.6534C21.9375 12.0739 22.2557 11.375 22.3807 10.5568C22.5739 9.38636 22.3068 8.46591 21.5795 7.79545C20.8523 7.125 19.7898 6.78977 18.392 6.78977H13.5852L12.3239 14.4432ZM51.1023 23.6989L53.5909 8.81818H61.9091L57.5455 35H49.6023L50.4034 30.125H50.1307C49.3239 31.7273 48.1364 33 46.5682 33.9432C45 34.875 43.233 35.3409 41.267 35.3409C39.483 35.3409 37.983 34.9318 36.767 34.1136C35.5511 33.2955 34.6875 32.1534 34.1761 30.6875C33.6761 29.2102 33.5852 27.483 33.9034 25.5057L36.6989 8.81818H45.0341L42.5284 23.8693C42.3125 25.2898 42.5 26.4091 43.0909 27.2273C43.6932 28.0455 44.6364 28.4545 45.9205 28.4545C46.75 28.4545 47.5284 28.2727 48.2557 27.9091C48.983 27.5341 49.5966 26.9943 50.0966 26.2898C50.608 25.5739 50.9432 24.7102 51.1023 23.6989ZM71.4929 28.1307L73.1804 18.1932H74.3224L83.2884 8.81818H92.7315L79.5724 22.25H77.3736L71.4929 28.1307ZM62.8509 35L68.6463 0.0909081H76.9815L71.1861 35H62.8509ZM79.1122 35L74.0668 24.125L80.5611 18.2102L88.7429 35H79.1122ZM98.6634 35.4432C97.0043 35.4432 95.5724 35.1648 94.3679 34.608C93.1747 34.0398 92.2997 33.1818 91.7429 32.0341C91.1974 30.8864 91.0668 29.4545 91.3509 27.7386C91.6009 26.2841 92.0611 25.0625 92.7315 24.0739C93.4134 23.0739 94.2486 22.2614 95.2372 21.6364C96.2372 21.0114 97.3509 20.5341 98.5781 20.2045C99.8054 19.875 101.089 19.6534 102.43 19.5398C103.93 19.4034 105.146 19.2557 106.078 19.0966C107.021 18.9375 107.726 18.7159 108.192 18.4318C108.658 18.1364 108.942 17.7273 109.044 17.2045V17.1193C109.18 16.2443 108.993 15.5682 108.482 15.0909C107.97 14.6136 107.203 14.375 106.18 14.375C105.089 14.375 104.158 14.6136 103.385 15.0909C102.612 15.5682 102.072 16.2273 101.766 17.0682L94.1293 16.7955C94.6065 15.2045 95.4247 13.7841 96.5838 12.5341C97.7429 11.2727 99.2145 10.2841 100.999 9.56818C102.794 8.84091 104.868 8.47727 107.22 8.47727C108.879 8.47727 110.379 8.67614 111.72 9.07386C113.061 9.46023 114.192 10.0284 115.112 10.7784C116.044 11.517 116.709 12.4261 117.107 13.5057C117.504 14.5852 117.589 15.8182 117.362 17.2045L114.379 35H106.538L107.152 31.3523H106.947C106.334 32.2386 105.612 32.9886 104.783 33.6023C103.964 34.2159 103.044 34.6761 102.021 34.983C100.999 35.2898 99.8793 35.4432 98.6634 35.4432ZM102.175 29.9886C103.05 29.9886 103.879 29.8068 104.663 29.4432C105.447 29.0795 106.107 28.5795 106.641 27.9432C107.186 27.2955 107.533 26.5455 107.68 25.6932L108.072 23.2045C107.834 23.3295 107.533 23.4432 107.169 23.5455C106.805 23.6477 106.419 23.7443 106.01 23.8352C105.601 23.9148 105.18 23.9943 104.749 24.0739C104.328 24.142 103.925 24.2045 103.538 24.2614C102.72 24.3864 102.01 24.5795 101.408 24.8409C100.805 25.1023 100.322 25.4432 99.9588 25.8636C99.6065 26.2727 99.3906 26.7614 99.3111 27.3295C99.1747 28.1818 99.3736 28.8409 99.9077 29.3068C100.442 29.7614 101.197 29.9886 102.175 29.9886Z" fill="black"/>
<path d="M129.788 35L135.584 0.0909081H150.141C152.754 0.0909081 154.885 0.460226 156.533 1.19886C158.18 1.9375 159.339 2.97159 160.01 4.30114C160.692 5.63068 160.885 7.17045 160.589 8.92045C160.351 10.2386 159.862 11.4205 159.124 12.4659C158.396 13.5 157.487 14.3636 156.396 15.0568C155.305 15.7386 154.101 16.2159 152.783 16.4886L152.714 16.8295C154.124 16.8864 155.368 17.2614 156.447 17.9545C157.538 18.6477 158.345 19.6193 158.868 20.8693C159.391 22.108 159.51 23.5625 159.226 25.233C158.919 27.108 158.163 28.7841 156.959 30.2614C155.766 31.7273 154.192 32.8864 152.237 33.7386C150.283 34.5795 148.021 35 145.453 35H129.788ZM139.385 28.1989H144.601C146.408 28.1989 147.805 27.8523 148.794 27.1591C149.794 26.4545 150.385 25.4886 150.567 24.2614C150.714 23.3636 150.635 22.5909 150.328 21.9432C150.021 21.2841 149.51 20.7784 148.794 20.4261C148.078 20.0625 147.175 19.8807 146.084 19.8807H140.714L139.385 28.1989ZM141.652 14.4432H146.339C147.249 14.4432 148.084 14.2898 148.845 13.983C149.618 13.6761 150.254 13.233 150.754 12.6534C151.266 12.0739 151.584 11.375 151.709 10.5568C151.902 9.38636 151.635 8.46591 150.908 7.79545C150.18 7.125 149.118 6.78977 147.72 6.78977H142.913L141.652 14.4432ZM180.43 23.6989L182.919 8.81818H191.237L186.874 35H178.93L179.732 30.125H179.459C178.652 31.7273 177.464 33 175.896 33.9432C174.328 34.875 172.561 35.3409 170.595 35.3409C168.811 35.3409 167.311 34.9318 166.095 34.1136C164.879 33.2955 164.016 32.1534 163.504 30.6875C163.004 29.2102 162.913 27.483 163.232 25.5057L166.027 8.81818H174.362L171.857 23.8693C171.641 25.2898 171.828 26.4091 172.419 27.2273C173.021 28.0455 173.964 28.4545 175.249 28.4545C176.078 28.4545 176.857 28.2727 177.584 27.9091C178.311 27.5341 178.925 26.9943 179.425 26.2898C179.936 25.5739 180.271 24.7102 180.43 23.6989ZM200.821 28.1307L202.509 18.1932H203.651L212.616 8.81818H222.06L208.901 22.25H206.702L200.821 28.1307ZM192.179 35L197.974 0.0909081H206.31L200.514 35H192.179ZM208.44 35L203.395 24.125L209.889 18.2102L218.071 35H208.44ZM239.446 23.6989L241.935 8.81818H250.253L245.889 35H237.946L238.747 30.125H238.474C237.668 31.7273 236.48 33 234.912 33.9432C233.344 34.875 231.577 35.3409 229.611 35.3409C227.827 35.3409 226.327 34.9318 225.111 34.1136C223.895 33.2955 223.031 32.1534 222.52 30.6875C222.02 29.2102 221.929 27.483 222.247 25.5057L225.043 8.81818H233.378L230.872 23.8693C230.656 25.2898 230.844 26.4091 231.435 27.2273C232.037 28.0455 232.98 28.4545 234.264 28.4545C235.094 28.4545 235.872 28.2727 236.599 27.9091C237.327 27.5341 237.94 26.9943 238.44 26.2898C238.952 25.5739 239.287 24.7102 239.446 23.6989Z" fill="#3E5F44"/>
</svg>
