<svg width="267" height="55" viewBox="0 0 267 55" fill="none" xmlns="http://www.w3.org/2000/svg">
<path d="M100.582 45V18.8182H117.611V22.794H105.325V29.902H116.729V33.8778H105.325V41.0241H117.713V45H100.582Z" fill="#761EB1"/>
<path d="M131.379 45V18.8182H141.197C143.209 18.8182 144.896 19.1932 146.26 19.9432C147.632 20.6932 148.668 21.7244 149.366 23.0369C150.074 24.3409 150.428 25.8239 150.428 27.4858C150.428 29.1648 150.074 30.6562 149.366 31.9602C148.659 33.2642 147.615 34.2912 146.234 35.0412C144.854 35.7827 143.153 36.1534 141.134 36.1534H134.626V32.2543H140.494C141.67 32.2543 142.634 32.0497 143.384 31.6406C144.134 31.2315 144.688 30.669 145.045 29.9531C145.412 29.2372 145.595 28.4148 145.595 27.4858C145.595 26.5568 145.412 25.7386 145.045 25.0312C144.688 24.3239 144.129 23.7741 143.371 23.3821C142.621 22.9815 141.653 22.7812 140.469 22.7812H136.122V45H131.379ZM154.991 45H149.929L159.146 18.8182H165.001L174.232 45H169.169L162.176 24.1875H161.972L154.991 45ZM155.158 34.7344H168.964V38.544H155.158V34.7344ZM177.68 45V18.8182H187.498C189.51 18.8182 191.197 19.1932 192.561 19.9432C193.933 20.6932 194.968 21.7244 195.667 23.0369C196.375 24.3409 196.728 25.8239 196.728 27.4858C196.728 29.1648 196.375 30.6562 195.667 31.9602C194.96 33.2642 193.916 34.2912 192.535 35.0412C191.154 35.7827 189.454 36.1534 187.434 36.1534H180.927V32.2543H186.795C187.971 32.2543 188.934 32.0497 189.684 31.6406C190.434 31.2315 190.988 30.669 191.346 29.9531C191.713 29.2372 191.896 28.4148 191.896 27.4858C191.896 26.5568 191.713 25.7386 191.346 25.0312C190.988 24.3239 190.43 23.7741 189.672 23.3821C188.922 22.9815 187.954 22.7812 186.77 22.7812H182.423V45H177.68ZM200.848 45V18.8182H217.876V22.794H205.591V29.902H216.994V33.8778H205.591V41.0241H217.979V45H200.848ZM222.715 45V18.8182H232.533C234.545 18.8182 236.232 19.1676 237.596 19.8665C238.968 20.5653 240.004 21.5455 240.702 22.8068C241.41 24.0597 241.763 25.5213 241.763 27.1918C241.763 28.8707 241.406 30.3281 240.69 31.5639C239.982 32.7912 238.938 33.7415 237.558 34.4148C236.177 35.0795 234.481 35.4119 232.469 35.4119H225.477V31.4744H231.83C233.006 31.4744 233.969 31.3125 234.719 30.9886C235.469 30.6562 236.023 30.1747 236.381 29.544C236.748 28.9048 236.931 28.1207 236.931 27.1918C236.931 26.2628 236.748 25.4702 236.381 24.8139C236.015 24.1491 235.457 23.6463 234.707 23.3054C233.957 22.956 232.989 22.7812 231.805 22.7812H227.458V45H222.715ZM236.241 33.1364L242.722 45H237.43L231.063 33.1364H236.241ZM260.358 26.0156C260.239 24.8991 259.736 24.0298 258.849 23.4077C257.972 22.7855 256.83 22.4744 255.423 22.4744C254.435 22.4744 253.587 22.6236 252.879 22.9219C252.172 23.2202 251.631 23.625 251.256 24.1364C250.881 24.6477 250.689 25.2315 250.68 25.8878C250.68 26.4332 250.804 26.9062 251.051 27.3068C251.307 27.7074 251.652 28.0483 252.087 28.3295C252.521 28.6023 253.003 28.8324 253.531 29.0199C254.06 29.2074 254.592 29.3651 255.129 29.4929L257.584 30.1065C258.572 30.3366 259.523 30.6477 260.435 31.0398C261.355 31.4318 262.178 31.9261 262.902 32.5227C263.635 33.1193 264.214 33.8395 264.641 34.6832C265.067 35.527 265.28 36.5156 265.28 37.6491C265.28 39.1832 264.888 40.5341 264.104 41.7017C263.32 42.8608 262.186 43.7685 260.703 44.4247C259.229 45.0724 257.443 45.3963 255.347 45.3963C253.31 45.3963 251.541 45.081 250.041 44.4503C248.55 43.8196 247.382 42.8991 246.538 41.6889C245.703 40.4787 245.251 39.0043 245.183 37.2656H249.849C249.918 38.1776 250.199 38.9361 250.693 39.5412C251.188 40.1463 251.831 40.598 252.624 40.8963C253.425 41.1946 254.32 41.3438 255.308 41.3438C256.339 41.3438 257.243 41.1903 258.018 40.8835C258.803 40.5682 259.416 40.1335 259.859 39.5795C260.303 39.017 260.528 38.3608 260.537 37.6108C260.528 36.929 260.328 36.3665 259.936 35.9233C259.544 35.4716 258.994 35.0966 258.287 34.7983C257.588 34.4915 256.77 34.2187 255.832 33.9801L252.854 33.2131C250.697 32.6591 248.993 31.8196 247.74 30.6946C246.496 29.5611 245.874 28.0568 245.874 26.1818C245.874 24.6392 246.291 23.2884 247.126 22.1293C247.97 20.9702 249.116 20.071 250.565 19.4318C252.014 18.7841 253.655 18.4602 255.487 18.4602C257.345 18.4602 258.973 18.7841 260.371 19.4318C261.777 20.071 262.881 20.9616 263.682 22.1037C264.483 23.2372 264.896 24.5412 264.922 26.0156H260.358Z" fill="#A1A1AA"/>
<path d="M41.7083 54.4375C38.675 52.6694 35.3889 51.2969 31.85 50.3198C28.3111 49.3427 24.6458 48.8542 20.8542 48.8542C18.2 48.8542 15.5932 49.1101 13.0339 49.6219C10.4745 50.1337 8.02569 50.8549 5.6875 51.7854C4.36042 52.2972 3.08073 52.274 1.84844 51.7156C0.616146 51.1573 0 50.3431 0 49.2729V15.6333C0 15.1215 0.173785 14.633 0.521354 14.1677C0.868924 13.7024 1.39028 13.3535 2.08542 13.1208C4.99236 12.0042 8.02569 11.1667 11.1854 10.6083C14.3451 10.05 17.5681 9.77083 20.8542 9.77083C24.5194 9.77083 28.1057 10.1198 31.613 10.8177C35.1203 11.5156 38.4854 12.5625 41.7083 13.9583V47.7375C44.9312 46.2486 48.3122 45.1319 51.851 44.3875C55.3899 43.6431 58.9604 43.2708 62.5625 43.2708C64.8375 43.2708 67.0651 43.4104 69.2453 43.6896C71.4255 43.9688 73.6215 44.3875 75.8333 44.9458V11.4458C76.7812 11.6785 77.7134 11.9227 78.6297 12.1786C79.546 12.4345 80.4465 12.7486 81.3312 13.1208C82.0264 13.3535 82.5477 13.7024 82.8953 14.1677C83.2429 14.633 83.4167 15.1215 83.4167 15.6333V49.2729C83.4167 50.3431 82.8005 51.1573 81.5682 51.7156C80.3359 52.274 79.0562 52.2972 77.7292 51.7854C75.391 50.8549 72.9422 50.1337 70.3828 49.6219C67.8234 49.1101 65.2167 48.8542 62.5625 48.8542C58.7708 48.8542 55.1056 49.3427 51.5667 50.3198C48.0278 51.2969 44.7417 52.6694 41.7083 54.4375ZM49.2917 40.4792V13.9583L68.25 0V27.9167L49.2917 40.4792ZM34.125 45.0156V17.3781C32.0396 16.7267 29.8752 16.2266 27.6318 15.8776C25.3884 15.5286 23.1292 15.3542 20.8542 15.3542C18.516 15.3542 16.241 15.517 14.0292 15.8427C11.8174 16.1684 9.66875 16.6569 7.58333 17.3083V45.0156C9.79514 44.4108 11.9911 43.9688 14.1714 43.6896C16.3516 43.4104 18.5792 43.2708 20.8542 43.2708C23.1292 43.2708 25.3568 43.4104 27.537 43.6896C29.7172 43.9688 31.9132 44.4108 34.125 45.0156Z" fill="#A1A1AA"/>
</svg>
